<svg width="14" height="14" viewBox="0 0 14 14" fill="none" xmlns="http://www.w3.org/2000/svg">
<path fill-rule="evenodd" clip-rule="evenodd" d="M6.18214 0.465088C6.70084 0.465088 7.19784 0.673363 7.56468 1.04467L13.1415 6.6894C13.3232 6.87317 13.4673 7.09138 13.5656 7.33154C13.6639 7.57171 13.7145 7.82913 13.7145 8.0891C13.7145 8.34907 13.6639 8.60649 13.5656 8.84666C13.4673 9.08682 13.3232 9.30503 13.1415 9.48881L9.48104 13.1938C9.29947 13.3777 9.08389 13.5236 8.84661 13.6231C8.60934 13.7226 8.35501 13.7738 8.09817 13.7738C7.84133 13.7738 7.587 13.7226 7.34973 13.6231C7.11245 13.5236 6.89687 13.3777 6.7153 13.1938L1.13847 7.54912C0.956922 7.36534 0.812912 7.14718 0.714664 6.90707C0.616415 6.66697 0.565853 6.40963 0.565865 6.14974V2.44404C0.565865 1.91919 0.771852 1.41583 1.13851 1.04471C1.50517 0.673584 2.00247 0.465088 2.52101 0.465088H6.18214ZM6.18214 1.79592H2.52101C2.35119 1.79592 2.18832 1.8642 2.06824 1.98575C1.94815 2.1073 1.88069 2.27215 1.88069 2.44404V6.14974C1.88069 6.32142 1.9484 6.48644 2.06805 6.60822L7.64488 12.2529C7.8947 12.5058 8.30098 12.5058 8.5508 12.2529L12.2119 8.54724C12.2714 8.48705 12.3187 8.41558 12.3509 8.33691C12.3831 8.25825 12.3997 8.17392 12.3997 8.08877C12.3997 8.00361 12.3831 7.91929 12.3509 7.84062C12.3187 7.76196 12.2714 7.69049 12.2119 7.6303L6.6351 1.98557C6.57552 1.92531 6.50479 1.87755 6.42695 1.84501C6.34912 1.81247 6.2657 1.79579 6.18148 1.79592H6.18214ZM4.51034 3.12676C4.85905 3.12676 5.19348 3.26697 5.44006 3.51655C5.68664 3.76613 5.82517 4.10463 5.82517 4.45759C5.82517 4.81055 5.68664 5.14905 5.44006 5.39863C5.19348 5.64821 4.85905 5.78842 4.51034 5.78842C4.16163 5.78842 3.8272 5.64821 3.58062 5.39863C3.33404 5.14905 3.19552 4.81055 3.19552 4.45759C3.19552 4.10463 3.33404 3.76613 3.58062 3.51655C3.8272 3.26697 4.16163 3.12676 4.51034 3.12676Z" fill="#7AC751"/>
</svg>
